<svg id="Layer_1" data-name="Layer 1" xmlns="http://www.w3.org/2000/svg" viewBox="0 0 512 512"><defs><style>.cls-1{fill:#fff;}</style></defs><title>consulting-icon</title><path class="cls-1" d="M479.38,48.41H142.64A32.66,32.66,0,0,0,110,81V181.16a44.07,44.07,0,0,0-35.4,46.1L76,248.53l3.24,49.65a55.08,55.08,0,0,0,94,35.28H479.38A32.65,32.65,0,0,0,512,300.84V81A32.66,32.66,0,0,0,479.38,48.41ZM95.68,236.74l-.7-10.8a23.68,23.68,0,0,1,23.64-25.24h26.29l-5.68,15.15C137.67,218.23,127,232.51,95.68,236.74Zm73.17,60.12a34.7,34.7,0,0,1-69.25,0L97,257.12c24.81-3.11,40.26-11.84,49.33-19.42a43,43,0,0,0,7.15,4.58c4.09,2.11,10.19,4.22,18.5,6.38Zm4.62-70.92-.12,1.95a58.57,58.57,0,0,1-10.49-3.74,20.28,20.28,0,0,1-4-2.56L164.72,206a26.52,26.52,0,0,1,2.4,2.23A23.47,23.47,0,0,1,173.47,225.94Zm318.13,74.9a12.23,12.23,0,0,1-12.22,12.22H186.13a55.49,55.49,0,0,0,3.08-14.88l0-.77H451.69a10.2,10.2,0,0,0,0-20.4H440.61V108.9a10.2,10.2,0,0,0-10.2-10.2H381.16A10.2,10.2,0,0,0,371,108.9V277H358.28V204a10.2,10.2,0,0,0-10.2-10.2H298.84a10.2,10.2,0,0,0-10.2,10.2v73H276.69V149a10.2,10.2,0,0,0-10.2-10.2H217.24A10.2,10.2,0,0,0,207,149V277H190.59l2.32-35.57.92-14.18A44.29,44.29,0,0,0,183.59,196V95.17a10.2,10.2,0,0,0-20.4,0v87.22a43.9,43.9,0,0,0-13.36-2.09H130.42V81a12.23,12.23,0,0,1,12.22-12.22H479.38A12.24,12.24,0,0,1,491.61,81V300.84ZM227.44,277V159.18h28.85V277Zm81.6,0V214.24h28.84V277Zm82.32,0V119.1h28.85V277Z"/><path class="cls-1" d="M267.9,423a84.18,84.18,0,0,0-82.84-69.17H169.5a10.19,10.19,0,0,0-7.21,3l-28.06,28.07-28.07-28.07a10.19,10.19,0,0,0-7.21-3H83.39A84.17,84.17,0,0,0,.56,423a34.41,34.41,0,0,0,33.86,40.55H234A34.42,34.42,0,0,0,267.9,423Zm-23.11,15.12a14,14,0,0,1-10.75,5H34.41a14,14,0,0,1-13.78-16.51,63.72,63.72,0,0,1,62.76-52.41H94.73L127,406.55a10.18,10.18,0,0,0,14.42,0l32.29-32.28h11.34a63.72,63.72,0,0,1,62.76,52.41h0A14,14,0,0,1,244.79,438.16Z"/><path class="cls-1" d="M472.22,78.4A10.2,10.2,0,0,0,462,88.6v38.75a10.2,10.2,0,1,0,20.4,0V88.6A10.2,10.2,0,0,0,472.22,78.4Z"/><path class="cls-1" d="M472.22,149.79A10.2,10.2,0,0,0,462,160v5.11a10.2,10.2,0,0,0,20.4,0V160A10.2,10.2,0,0,0,472.22,149.79Z"/></svg>