<svg fill="#a3a6ae" id="Capa_1" data-name="Capa 1" xmlns="http://www.w3.org/2000/svg" viewBox="0 0 512 512"><defs><style>.cls-1{stroke:#000;stroke-miterlimit:10;stroke-width:2px;}</style></defs><title>ico-09</title><path class="cls-1" d="M505.71,159.57,336.46,50.68a7.28,7.28,0,0,0-7.87,12.24l166.77,107.3H456.49L266.64,48.07a19.7,19.7,0,0,0-21.28,0L55.51,170.22H16.64L256,16.2,289.89,38a7.27,7.27,0,0,0,7.87-12.23L263.86,4a14.57,14.57,0,0,0-15.72,0L6.29,159.57a13.68,13.68,0,0,0,7.4,25.19H50.38v47a12,12,0,0,0,9.56,11.78v12.8a12.06,12.06,0,0,0,12,12.05h1v89.11a7.27,7.27,0,0,0,14.54,0V261.14a7.27,7.27,0,0,0-7.27-7.27H74.48v-10H126v10h-5.77a7.26,7.26,0,0,0-7.27,7.27v160.7a7.27,7.27,0,0,0,7.27,7.27H126V440H74.48V429.11h5.77a7.27,7.27,0,0,0,7.27-7.27V403.25a7.27,7.27,0,1,0-14.54,0v11.31H72a12.05,12.05,0,0,0-12,12v12.81a12,12,0,0,0-9.56,11.78v14.68H24.61A14.6,14.6,0,0,0,10,480.45v15.3a14.6,14.6,0,0,0,14.58,14.58H487.39A14.6,14.6,0,0,0,502,495.75v-15.3a14.6,14.6,0,0,0-14.58-14.58H461.62V451.19a12,12,0,0,0-9.56-11.78v-12.8a12.05,12.05,0,0,0-12-12.05h-1V268.41h1a12.05,12.05,0,0,0,12-12v-12.8a12.05,12.05,0,0,0,9.56-11.78v-47h36.69a13.68,13.68,0,0,0,7.4-25.19ZM253.23,60.3a5.14,5.14,0,0,1,5.54,0L429.6,170.22H82.4ZM64.92,184.76H447.08v17.8H64.92ZM296.3,439.41v-12.8a12.05,12.05,0,0,0-12-12h-1V268.42h1a12.06,12.06,0,0,0,12-12.05v-12.8a12,12,0,0,0,9.56-11.78V217.11h56v14.68a12.05,12.05,0,0,0,9.56,11.78v12.8a12.06,12.06,0,0,0,12,12.05h1V414.57h-1a12.05,12.05,0,0,0-12,12v12.8a12.05,12.05,0,0,0-9.56,11.78v14.68h-56V451.19A12,12,0,0,0,296.3,439.41Zm-155.76,0v-12.8a12.05,12.05,0,0,0-12-12h-1V268.42h1a12.06,12.06,0,0,0,12-12.05v-12.8a12.05,12.05,0,0,0,9.56-11.78V217.11h56v14.68a12,12,0,0,0,9.56,11.78v12.8a12.06,12.06,0,0,0,12,12.05h1V414.57h-1a12.05,12.05,0,0,0-12,12v12.8a12,12,0,0,0-9.56,11.78v14.68h-56V451.19A12.05,12.05,0,0,0,140.54,439.41ZM276,429.11h5.77V440H230.24V429.11H236a7.28,7.28,0,0,0,7.28-7.27V261.14a7.28,7.28,0,0,0-7.28-7.27h-5.77v-10h51.52v10H276a7.26,7.26,0,0,0-7.27,7.27v160.7A7.27,7.27,0,0,0,276,429.11ZM223,229.28h-2.29V217.11h70.64v12.17H223Zm-2.29,224.93a7.37,7.37,0,0,0,2.26.36H289a7.42,7.42,0,0,0,2.32-.38v11.68H220.68ZM67.21,229.28H64.92V217.11h70.63v12.17H67.21ZM64.92,454.2a7.23,7.23,0,0,0,2.29.37h66.06a7.12,7.12,0,0,0,2.28-.37v11.67H64.92V454.2Zm422.5,26.25,0,15.34h0l-462.81,0,0-15.33Zm-42.65-25.88a7.36,7.36,0,0,0,2.31-.38v11.68H376.45V454.21a7.33,7.33,0,0,0,2.26.36Zm-53-200.7H386v-10h51.52v10h-5.77a7.26,7.26,0,0,0-7.27,7.27v160.7a7.27,7.27,0,0,0,7.27,7.27h5.77V440H386V429.11h5.77a7.28,7.28,0,0,0,7.28-7.27V261.14A7.28,7.28,0,0,0,391.77,253.87Zm55.31-24.59H376.45V217.11h70.63v12.17Z"/></svg>