<svg fill="#a3a6ae" id="Layer_1" data-name="Layer 1" xmlns="http://www.w3.org/2000/svg" viewBox="0 0 512 512"><defs><style>.cls-1{fill:none;stroke:#000;stroke-miterlimit:10;stroke-width:15px;}</style></defs><title>ico-10</title><path d="M507.45,178.59a10.58,10.58,0,0,0-9.76-1.28l-87,31.63a40.66,40.66,0,0,0-26.25,28.24c-14.93-4.25-42.68-13.12-70.26-27.32-41.67-21.48-73.51-10.87-100.82,10-13.83.27-32.9,1.9-51.65,3.56-12,1.05-23.26,2-32.42,2.58a42.68,42.68,0,0,0-28.06-38.35L14.31,156A10.66,10.66,0,0,0,0,166V379.33A10.66,10.66,0,0,0,10.67,390H41.82a42.91,42.91,0,0,0,33.55-16.34c4.25,3.23,9.27,7,14.55,11C102.36,394,116,404.21,122,409.22c39.72,33.25,87.47,69.16,97,75.41,8.88,5.83,24.88,12,37.05,12,4.76,0,16.75,0,25.17-7.12A34.28,34.28,0,0,0,307.9,489a40,40,0,0,0,19.78-19.79,41.6,41.6,0,0,0,26.58-3.9c8.14-4.07,14.13-10.24,17.33-17.45,7.71.71,15.94-1.8,23.31-7.44,10.52-8,15.34-19.92,14-31.63l27.06-15a42.73,42.73,0,0,0,34.25,17.55h31.15A10.66,10.66,0,0,0,512,400.67V187.33A10.68,10.68,0,0,0,507.45,178.59ZM61.8,354.82a21.43,21.43,0,0,1-20,13.85H21.33V181.23L94,207.65a21.35,21.35,0,0,1,12.69,27.53ZM382,423.44c-3.62,2.77-8.68,4.31-10.93,2.06-.11-.11-.29-.1-.41-.21a7.87,7.87,0,0,0-.53-.62c-7.62-6-41.79-41-62.9-63a10.66,10.66,0,1,0-15.4,14.75c5,5.17,44.74,46.6,60.66,61.1-1.18,4.68-5.53,7.57-7.73,8.68-6.83,3.43-14,2.85-16.63.37-.08-.07-.19-.07-.28-.14s-.18-.28-.32-.39c-12.79-10.22-44.89-44.32-52.15-52.22a10.67,10.67,0,1,0-15.7,14.44c.35.38,31.8,34.31,49.46,50.07a18.76,18.76,0,0,1-9.81,11.12c-3.35,1.49-8.59,2.25-14.57-2.17-15.32-13-46.06-45.71-52.11-52.19A10.67,10.67,0,1,0,217,429.66c7.17,7.67,28.36,30.12,44.46,45.33a45.93,45.93,0,0,1-5.48.34c-7.06,0-19.2-4.51-25.33-8.54-7.48-4.91-54.44-40-95-73.91-6.14-5.15-20.14-15.68-32.95-25.31-6.87-5.15-13.19-9.9-17.86-13.49l39.94-106.52c10.37-.45,24.19-1.65,38.82-2.94,8.27-.72,16.55-1.44,24.46-2.05-12.16,12.49-30.24,34.85-27.86,55.81,1.09,9.55,6.31,17.49,15.11,23,17.43,10.91,49.69,1.76,65.23-17.35a74.12,74.12,0,0,0,24.21-7.68c12.5,11.75,29.26,25.57,46.87,40.08,30.64,25.25,65.38,53.87,74.57,69.92C391.33,415.27,384.24,421.69,382,423.44Zm18.3-34.31c-14.21-19-45-44.45-75-69.18-20-16.49-38.91-32.07-51-44.16a10.71,10.71,0,0,0-12.57-1.86c-10.87,5.82-15.76,8.23-28,9.45a10.69,10.69,0,0,0-7.95,4.93c-8.37,13.27-31.62,19.58-39,15-4.19-2.62-5-5.29-5.23-7.32-1-9.08,8.15-24.78,23.39-40,37.74-37.74,64.72-45.13,99.63-27.13,33.16,17.1,65.89,26.77,79.63,30.42a44.92,44.92,0,0,0,1.27,4.78l41.42,110.45Zm90.42.87H470.18a21.42,21.42,0,0,1-20-13.84L405.33,256.52A21.35,21.35,0,0,1,418,229l72.65-26.42V390Z"/><path d="M281.9,80.21v-24c8.27.59,11.34,4.37,14.18,4.37,3.54,0,5.19-4.49,5.19-6.73,0-5.79-11.34-8.27-19.37-8.5V42.18c0-1.42-1.77-2.72-3.54-2.72-2,0-3.43,1.3-3.43,2.72V45.6c-11.22,1.18-22.44,7.09-22.44,22,0,15.12,11.81,19.37,22.44,23.15v27.76c-12-.94-15.23-9.21-19.13-9.21-3,0-5.44,3.9-5.44,6.73,0,5.79,9.93,13.7,24.57,13.94h0v3.66c0,1.42,1.42,2.72,3.43,2.72,1.77,0,3.54-1.3,3.54-2.72v-4c12.76-1.78,21.5-9.81,21.5-24.34C303.4,89.19,292.18,84,281.9,80.21ZM275.64,78c-6.26-2.37-11.34-4.85-11.34-11.58,0-6.14,4.73-9.09,11.34-9.92Zm5.55,40.28V93.32c5.79,2.48,10.4,5.79,10.4,13.23C291.59,113.28,287.57,117.07,281.19,118.25Z"/><circle class="cls-1" cx="276.88" cy="87.89" r="68.5"/></svg>