<svg fill="#a3a6ae" id="Capa_1" data-name="Capa 1" xmlns="http://www.w3.org/2000/svg" viewBox="0 0 512 512"><title>ico-07</title><path d="M501.33,490.67H10.67a10.67,10.67,0,1,0,0,21.33H501.33a10.67,10.67,0,1,0,0-21.33Z"/><path d="M96,362.67H32a10.67,10.67,0,0,0-10.67,10.66v128A10.67,10.67,0,0,0,32,512H96a10.67,10.67,0,0,0,10.67-10.67v-128A10.67,10.67,0,0,0,96,362.67Zm-10.67,128H42.67V384H85.33V490.67Z"/><path d="M224,256H160a10.67,10.67,0,0,0-10.67,10.67V501.33A10.67,10.67,0,0,0,160,512h64a10.67,10.67,0,0,0,10.67-10.67V266.67A10.67,10.67,0,0,0,224,256ZM213.33,490.67H170.67V277.33h42.66V490.67Z"/><path d="M352,298.67H288a10.67,10.67,0,0,0-10.67,10.66v192A10.67,10.67,0,0,0,288,512h64a10.67,10.67,0,0,0,10.67-10.67v-192A10.67,10.67,0,0,0,352,298.67Zm-10.67,192H298.67V320h42.66Z"/><path d="M480,170.67H416a10.67,10.67,0,0,0-10.67,10.66v320A10.67,10.67,0,0,0,416,512h64a10.67,10.67,0,0,0,10.67-10.67v-320A10.67,10.67,0,0,0,480,170.67Zm-10.67,320H426.67V192h42.66Z"/><path d="M64,192a42.67,42.67,0,1,0,42.67,42.67A42.72,42.72,0,0,0,64,192Zm0,64a21.34,21.34,0,1,1,21.33-21.33A21.35,21.35,0,0,1,64,256Z"/><path d="M192,85.33A42.67,42.67,0,1,0,234.67,128,42.72,42.72,0,0,0,192,85.33Zm0,64A21.33,21.33,0,1,1,213.33,128,21.35,21.35,0,0,1,192,149.33Z"/><path d="M320,128a42.67,42.67,0,1,0,42.67,42.67A42.72,42.72,0,0,0,320,128Zm0,64a21.34,21.34,0,1,1,21.33-21.33A21.35,21.35,0,0,1,320,192Z"/><path d="M448,0a42.67,42.67,0,1,0,42.67,42.67A42.72,42.72,0,0,0,448,0Zm0,64a21.34,21.34,0,1,1,21.33-21.33A21.35,21.35,0,0,1,448,64Z"/><path d="M432.94,57.73a10.67,10.67,0,0,0-15.08,0L335.08,140.5a10.67,10.67,0,0,0,15.09,15.08l82.77-82.77A10.67,10.67,0,0,0,432.94,57.73Z"/><path d="M294.21,146.05l-68.53-19.54a10.56,10.56,0,0,0-13.16,7.34A10.66,10.66,0,0,0,219.84,147l68.52,19.54a10.67,10.67,0,1,0,5.85-20.52Z"/><path d="M175.36,141.29a10.68,10.68,0,0,0-15-1.71L80,203.71a10.67,10.67,0,0,0,6.65,19,10.8,10.8,0,0,0,6.64-2.3l80.43-64.13A10.67,10.67,0,0,0,175.36,141.29Z"/></svg>