<svg id="Capa_1" data-name="Capa 1" xmlns="http://www.w3.org/2000/svg" viewBox="0 0 512 512">
    <path class="cls-1"
          d="M255.84,102a107.18,107.18,0,0,0-107,107.05c0,59,48,107.16,107.05,107.16a107.18,107.18,0,0,0,107.06-107C362.9,150.21,314.92,102,255.84,102Zm0,188.55a81.39,81.39,0,1,1,81.39-81.39A81.47,81.47,0,0,1,255.84,290.57Z"/>
    <path class="cls-1"
          d="M255.84,0c-2.4,0-4.92,0-7.33.1C145.23,3.67,59.86,83.9,50,186.66a209.11,209.11,0,0,0,2.72,59,66.9,66.9,0,0,0,1.47,6.91A197.41,197.41,0,0,0,68,293.18c21.27,50.39,67.88,128,169.07,212a29.78,29.78,0,0,0,37.91,0c101.08-83.9,147.7-161.62,168.85-211.59a203.31,203.31,0,0,0,13.94-41c.62-2.52,1-4.61,1.36-6.6a205.7,205.7,0,0,0,3.77-39.28C462.72,92.81,369.91,0,255.84,0ZM433.7,241.65c0,.21-.31,2-1,5.24a188.92,188.92,0,0,1-12.36,36.34C400.08,331,355.67,404.84,258.57,485.39a4.21,4.21,0,0,1-2.62.95,4.41,4.41,0,0,1-2.62-.95c-97.1-80.65-141.62-154.5-161.94-202.57a180.79,180.79,0,0,1-12.25-36c-.63-2.72-.94-4.4-1-4.92,0-.21-.1-.42-.1-.63a184.21,184.21,0,0,1-2.41-52.06c8.69-90,83.37-160.26,173.88-163.4,102.75-3.56,187.6,79,187.6,181.1A187.89,187.89,0,0,1,433.7,241.65Z"/>
</svg>