<svg id="Layer_1" data-name="Layer 1" xmlns="http://www.w3.org/2000/svg" viewBox="0 0 512 512">
    <path class="cls-1"
          d="M492.1,182.3,261.7,13.3c-4.2-3.1-9.4-3.1-12.5,0L16.2,183.1a11,11,0,0,0-5.2,9.4v298a10.38,10.38,0,0,0,10.4,10.4H489.5a11.3,11.3,0,0,0,11.4-9.4V196.2C501,190.5,499,187,492.1,182.3ZM51.6,480.2,220.3,349.5l29,21.3c3.6,3.4,8.3,3.2,12.5,0l28-20.5L457.4,480.2ZM31.8,210.6,203.5,337.1,31.8,470.2ZM306.5,337.9,480.2,210.5v262Zm-51-303.7L470.2,192,255.5,349.9,41.2,191.7Z"/>
</svg>