<svg id="Capa_1" data-name="Capa 1" xmlns="http://www.w3.org/2000/svg" viewBox="0 0 512 512">
    <path class="cls-1"
          d="M404.64,317.17c-10.48-10.92-23.12-16.75-36.52-16.75s-26.05,5.72-37,16.64L297,351.1c-2.81-1.52-5.62-2.92-8.32-4.33-3.89-1.94-7.56-3.78-10.7-5.72-32-20.32-61.05-46.79-88.93-81.05-13.51-17.07-22.59-31.44-29.18-46,8.86-8.11,17.08-16.54,25.07-24.64,3-3,6.05-6.16,9.08-9.19,22.69-22.69,22.69-52.08,0-74.77l-29.5-29.5c-3.35-3.35-6.81-6.81-10.05-10.27C148,58.9,141.19,52,134.16,45.5c-10.48-10.37-23-15.88-36.2-15.88S72,35.13,61.22,45.5l-.21.22L24.27,82.78A79,79,0,0,0,.82,133c-2.6,31.55,6.7,60.95,13.83,80.18,17.5,47.22,43.66,91,82.67,137.89,47.33,56.51,104.27,101.14,169.33,132.59,24.85,11.78,58,25.72,95.09,28.09,2.27.11,4.65.22,6.81.22,25,0,45.92-9,62.35-26.8.11-.22.32-.32.43-.54,5.62-6.81,12.11-13,18.91-19.56,4.65-4.43,9.4-9.08,14.05-13.94,10.7-11.13,16.32-24.1,16.32-37.39s-5.73-26.26-16.64-37.06ZM443.33,431c-.11,0-.11.11,0,0-4.22,4.54-8.54,8.65-13.19,13.19a284.61,284.61,0,0,0-20.85,21.61c-10.92,11.67-23.78,17.18-40.63,17.18-1.62,0-3.35,0-5-.11-32.1-2.05-61.92-14.58-84.29-25.28-61.16-29.61-114.87-71.65-159.5-124.92-36.85-44.41-61.49-85.48-77.8-129.57C32.05,176.15,28.37,155.18,30,135.41a49.61,49.61,0,0,1,14.92-32.1L81.75,66.46c5.3-5,10.92-7.67,16.43-7.67,6.81,0,12.32,4.11,15.78,7.57l.32.32c6.59,6.16,12.86,12.54,19.45,19.34,3.35,3.46,6.81,6.92,10.27,10.49L173.5,126c11.45,11.45,11.45,22,0,33.49-3.14,3.14-6.16,6.27-9.29,9.3-9.08,9.29-17.73,17.94-27.13,26.36-.21.22-.43.33-.54.55-9.29,9.29-7.56,18.37-5.62,24.53l.33,1c7.67,18.58,18.48,36.09,34.9,57l.11.1c29.82,36.74,61.27,65.38,96,87.32a147.38,147.38,0,0,0,13.29,7.24c3.89,1.94,7.56,3.78,10.7,5.72.43.22.86.54,1.29.76a23.43,23.43,0,0,0,10.7,2.7c9,0,14.59-5.62,16.43-7.45l36.95-37c3.68-3.67,9.51-8.11,16.32-8.11s12.21,4.22,15.56,7.89l.22.22,59.54,59.54C454.35,408.15,454.35,419.5,443.33,431Z"/>
    <path class="cls-1"
          d="M276.7,121.79A139.07,139.07,0,0,1,389.94,235a14.5,14.5,0,0,0,14.38,12.1,20.74,20.74,0,0,0,2.48-.21,14.61,14.61,0,0,0,12-16.86,168.16,168.16,0,0,0-137-137,14.66,14.66,0,0,0-16.86,11.88A14.43,14.43,0,0,0,276.7,121.79Z"/>
    <path class="cls-1"
          d="M511.41,225.85A276.91,276.91,0,0,0,285.77.22,14.57,14.57,0,1,0,281,29,247.3,247.3,0,0,1,482.66,230.61,14.5,14.5,0,0,0,497,242.71a20.91,20.91,0,0,0,2.49-.21A14.33,14.33,0,0,0,511.41,225.85Z"/>
</svg>