<svg id="Capa_1" data-name="Capa 1" xmlns="http://www.w3.org/2000/svg" viewBox="0 0 100.1 89.6">
    <defs>
        <style>.cls-1{fill:#fff;}.cls-2{fill:#3855c9;}</style>
    </defs>
    <title>Artboard 1</title>
    <path class="cls-1" d="M10.43,64.3l5.7-7.92A28.45,28.45,0,0,1,59.48,24.65L66,18.74a37,37,0,0,0-55.69,46Z"/>
    <path class="cls-2"
          d="M69.81,22.17l-7.1,5.07A28.45,28.45,0,1,1,19.38,63.41l-6.29,6.18A38.09,38.09,0,0,0,43.35,85.13a37,37,0,0,0,26.46-63Z"/>
    <path class="cls-2"
          d="M86,31.71,93,5.27,66.7,12.37l5.47,5.51L38.44,50s-2.11.78-1.64-.51a18.14,18.14,0,0,0,0-7.45c-.55-2.32-2,0-2,0l-28,32.85L28.86,56.3s2.87-2,3.07,8.28,6,3.6,6,3.6L80.54,25.7Z"/>
</svg>