<svg xmlns="http://www.w3.org/2000/svg" viewBox="0 0 512 512">
    <defs>
        <style>.cls-1{fill:#f2f2f2;}</style>
    </defs>
    <title>ico1</title>
    <path class="cls-1"
          d="M476.25,102.76a10.2,10.2,0,0,1-3,14.12L292.15,234.94a10.2,10.2,0,0,1-15.77-8.54V10.2A10.2,10.2,0,0,1,286.58,0,225.87,225.87,0,0,1,476.25,102.76ZM296.78,207.57,453.38,105.5a205.39,205.39,0,0,0-156.6-84.85Z"/>
    <path class="cls-1"
          d="M445.67,162A226.4,226.4,0,1,1,256,59.21a10.2,10.2,0,0,1,10.2,10.2V266.78L431.56,159A10.21,10.21,0,0,1,445.67,162ZM462,285.6A205.19,205.19,0,0,0,434,181.79L261.57,294.15a10.21,10.21,0,0,1-13.5-2.13L118.74,132A205.13,205.13,0,0,0,50,285.6c0,113.59,92.41,206,206,206S462,399.19,462,285.6ZM245.8,256.76V79.86a206.6,206.6,0,0,0-111.19,39.32Z"/>
    <path class="cls-1"
          d="M434.09,208.27a10.2,10.2,0,0,1-3,14.11l-3.59,2.34a10.2,10.2,0,1,1-11.14-17.09l3.59-2.34A10.19,10.19,0,0,1,434.09,208.27Z"/>
    <path class="cls-1"
          d="M402.7,228.72a10.21,10.21,0,0,1-3,14.12l-66.38,43.24A10.2,10.2,0,0,1,322.2,269l66.38-43.24A10.21,10.21,0,0,1,402.7,228.72Z"/>
</svg>