<svg fill="#f2f2f2" id="Capa_1" data-name="Capa 1" xmlns="http://www.w3.org/2000/svg" viewBox="0 0 299.98 299.98"><title>ico-04</title><path d="M156.51,138.23v-3.91a28.43,28.43,0,0,0,0-54.95V53.25a41.46,41.46,0,0,1,12.09,8.24A7.5,7.5,0,0,0,179.37,51c-1.21-1.24-10.59-10.61-22.86-13.57V33.62a7.5,7.5,0,0,0-15,0v4.05a28.43,28.43,0,0,0,0,54.67v25.45a50,50,0,0,1-11.75-9.7,7.5,7.5,0,0,0-11.42,9.72c1.26,1.48,11,12.52,23.17,16.23v4.19a7.5,7.5,0,1,0,15,0Zm6.13-31.38a13.42,13.42,0,0,1-6.13,11.26V95.58A13.45,13.45,0,0,1,162.64,106.85ZM135.9,65a13.44,13.44,0,0,1,5.61-10.92V75.92A13.43,13.43,0,0,1,135.9,65Z"/><path d="M141.51,251.57v40.91a7.5,7.5,0,0,0,15,0v-8.64h49.23a39.82,39.82,0,0,0,39.77-39.77V211.79a7.5,7.5,0,0,0-7.5-7.5H205.74A39.82,39.82,0,0,0,166,244.07v24.77h-9.44V170.52a85.26,85.26,0,1,0-15,0v66H134V211.79A39.82,39.82,0,0,0,94.25,172H62a7.48,7.48,0,0,0-7.5,7.5v32.28a39.82,39.82,0,0,0,39.77,39.78Zm-47.26-15a24.81,24.81,0,0,1-24.78-24.79V187H94.25A24.8,24.8,0,0,1,119,211.79v24.78ZM78.76,85.43A70.25,70.25,0,1,1,149,155.87,70.43,70.43,0,0,1,78.76,85.43ZM230.51,244.07a24.8,24.8,0,0,1-24.77,24.77H181V244.06a24.8,24.8,0,0,1,24.78-24.77h24.77Z"/></svg>