<svg fill="#f2f2f2" id="Capa_1" data-name="Capa 1" xmlns="http://www.w3.org/2000/svg" viewBox="0 0 512 512"><title>ico-03</title><path d="M496,281.61a45,45,0,0,0-61.93,3.72L390,332.66a45.11,45.11,0,0,0-39.07-31.48,169.36,169.36,0,0,0,22.16-18.51A163.26,163.26,0,0,0,422,166C422,75.07,347.25,0,256,0,165,0,91,74.86,91,166a164.26,164.26,0,0,0,42.4,110.33,104.12,104.12,0,0,0-20.63,13.78A45,45,0,0,0,76,271H15A15,15,0,0,0,0,286V497a15,15,0,0,0,15,15H76a45,45,0,0,0,42.49-30.22A14.83,14.83,0,0,0,121,482H347A105.56,105.56,0,0,0,431,439.94l72-97A45,45,0,0,0,496,281.61ZM91,467a15,15,0,0,1-15,15H30V301H76a15,15,0,0,1,15,15Zm30-301c0-75,60.56-136,135-136,75,0,136,61,136,136,0,71.6-56.45,130.36-127.49,134.73a15,15,0,0,1-7.09-3.47l-7.05-6.2a105,105,0,0,0-84.81-24.94A134.54,134.54,0,0,1,121,166ZM479,325l-72,97a75.34,75.34,0,0,1-60,30H121V322.78l10.45-9.2a75.15,75.15,0,0,1,99.09,0C235.64,318.07,249.47,331,256,331h91a15,15,0,0,1,0,30H239.39a15,15,0,0,0,0,30H357.05A45.12,45.12,0,0,0,390,376.67l66-70.89A15,15,0,0,1,479,325Z"/><path d="M256,151a15,15,0,0,1-5.14-29.1c7.71-2.81,16.68,1,24.61,10.44a15,15,0,0,0,23-19.29c-8.11-9.66-17.55-16.29-27.45-19.63V76a15,15,0,0,0-30,0V93.57l-.4.14A45,45,0,0,0,256,181a15,15,0,0,1,5.84,28.82c-6.72,2.85-14.76.42-22.06-6.65a15,15,0,0,0-20.88,21.54A58.77,58.77,0,0,0,241,238.52V256a15,15,0,0,0,30,0V238.43c.85-.3,1.69-.62,2.54-1A45,45,0,0,0,256,151Z"/></svg>