<svg fill="#f2f2f2" id="Layer_1" data-name="Layer 1" xmlns="http://www.w3.org/2000/svg" viewBox="0 0 512 512"><title>ico-06</title><path d="M430,82a10.21,10.21,0,0,0-14.43,0l-3.29,3.3a10.2,10.2,0,0,0,14.43,14.42L430,96.42A10.21,10.21,0,0,0,430,82Z"/><path d="M499.61,0H434.86a10.2,10.2,0,1,0,0,20.4h42.32L441.92,55.66a10.2,10.2,0,1,0,14.42,14.42L489.41,37V74.94a10.2,10.2,0,0,0,20.4,0V10.2A10.21,10.21,0,0,0,499.61,0Z"/><path d="M499.61,426.86a10.2,10.2,0,0,0-10.2,10.2V475l-83.06-83.06A202,202,0,0,0,458.78,256c0-111.81-91-202.78-202.78-202.78a202,202,0,0,0-135.93,52.43L34.82,20.4H77.14a10.2,10.2,0,0,0,0-20.4H12.39A10.2,10.2,0,0,0,2.19,10.2V74.94a10.2,10.2,0,0,0,20.4,0V37l83.06,83a202.41,202.41,0,0,0,0,271.85L22.59,475V437.06a10.2,10.2,0,1,0-20.39,0V501.8A10.2,10.2,0,0,0,12.39,512H77.14a10.2,10.2,0,0,0,0-20.4H34.82l85.26-85.25a202.41,202.41,0,0,0,271.85,0l85.25,85.25H434.86a10.2,10.2,0,0,0,0,20.4h64.75a10.2,10.2,0,0,0,10.2-10.2V437.06A10.21,10.21,0,0,0,499.61,426.86ZM256,438.38C155.43,438.38,73.62,356.57,73.62,256S155.43,73.62,256,73.62,438.38,155.43,438.38,256,356.57,438.38,256,438.38Z"/><path d="M296.68,133.86a38.27,38.27,0,0,0-27.82-12.06H243.15a38.12,38.12,0,0,0-38.05,40.61l1.14,17.53,2.67,40.91a47.19,47.19,0,0,0,94.18,0l3.05-46.75.77-11.69A38.29,38.29,0,0,0,296.68,133.86Zm-71.23,27.23a17.73,17.73,0,0,1,17.69-18.89h19.08l-3.71,9.88c-1.33,1.9-9.63,12.35-32.61,16Zm57.29,58.44a26.8,26.8,0,0,1-53.48,0l-2-31.07c19-2.64,31.31-9.17,38.88-15.21a37.27,37.27,0,0,0,4.93,3,74.12,74.12,0,0,0,14.18,5Zm-2.32-61.39a21.28,21.28,0,0,1-2-1.14l3.42-9.11a17.56,17.56,0,0,1,4.71,12.56A38.91,38.91,0,0,1,280.42,158.14Z"/><path d="M367.91,331.79a71.12,71.12,0,0,0-70-58.48H285.07a10.2,10.2,0,0,0-7.21,3L256,298.15,234.15,276.3a10.22,10.22,0,0,0-7.22-3H214.11a71.12,71.12,0,0,0-70,58.48,30.14,30.14,0,0,0,29.66,35.52h164.5a30.14,30.14,0,0,0,29.66-35.52Zm-22.18,11.62a9.62,9.62,0,0,1-7.48,3.5H173.75a9.75,9.75,0,0,1-9.59-11.49,51,51,0,0,1,40.53-40.83,50.5,50.5,0,0,1,9.42-.88h8.6l26.08,26.08a10.21,10.21,0,0,0,14.42,0l26.08-26.08h8.6a50.74,50.74,0,0,1,49.95,41.71A9.62,9.62,0,0,1,345.73,343.41Z"/></svg>