<svg fill="#f2f2f2" id="Layer_1" data-name="Layer 1" xmlns="http://www.w3.org/2000/svg" viewBox="0 0 512 512"><title>ico-05</title><path d="M476.05,201.65H400.78l103-103a27.94,27.94,0,0,0,0-39.51L493.07,48.35a28,28,0,0,0-39.51,0l-153.3,153.3H32.86A32.9,32.9,0,0,0,0,234.51V439a32.9,32.9,0,0,0,32.86,32.86H476.05A32.9,32.9,0,0,0,508.91,439V234.51A32.9,32.9,0,0,0,476.05,201.65ZM468,62.77a7.55,7.55,0,0,1,10.66,0l10.75,10.75a7.53,7.53,0,0,1,0,10.66L463.28,110.3,444.94,92l-3.07-3.07Zm-40.53,40.54,21.41,21.41L244.92,328.65l-32.11,10.71,10.7-32.12ZM488.51,439a12.47,12.47,0,0,1-12.46,12.46H32.86A12.47,12.47,0,0,1,20.4,439V234.51a12.47,12.47,0,0,1,12.46-12.46h247l-72.47,72.47a10.35,10.35,0,0,0-2.47,4L187,352.26a10.2,10.2,0,0,0,12.9,12.9l53.75-17.92a10.21,10.21,0,0,0,4-2.46L380.38,222.05h95.67a12.47,12.47,0,0,1,12.46,12.46V439Z"/><path d="M451.08,408.12H445a10.2,10.2,0,1,0,0,20.4h6.08a10.2,10.2,0,0,0,0-20.4Z"/><path d="M404.45,408.12H172.36a10.2,10.2,0,0,0,0,20.4H404.45a10.2,10.2,0,0,0,0-20.4Z"/><path d="M451.08,349.34h-152a10.2,10.2,0,0,0,0,20.4h152a10.2,10.2,0,0,0,0-20.4Z"/><path d="M107.59,316.21V278.39c13,.94,17.88,6.9,22.35,6.9,5.59,0,8.2-7.08,8.2-10.62,0-9.13-17.88-13-30.55-13.41v-5c0-2.24-2.8-4.29-5.59-4.29-3.17,0-5.4,2.05-5.4,4.29v5.4c-17.7,1.86-35.4,11.18-35.4,34.65,0,23.84,18.63,30.55,35.4,36.51v43.78c-19-1.49-24-14.53-30.18-14.53-4.66,0-8.57,6.15-8.57,10.62,0,9.12,15.65,21.61,38.75,22v5.77c0,2.24,2.23,4.29,5.4,4.29,2.79,0,5.59-2.05,5.59-4.29v-6.33c20.12-2.8,33.9-15.46,33.9-38.38C141.49,330.37,123.79,322.17,107.59,316.21Zm-9.88-3.54C87.84,309,79.83,305,79.83,294.42c0-9.69,7.45-14.35,17.88-15.65Zm8.76,63.53V336.89c9.13,3.91,16.39,9.13,16.39,20.86C122.86,368.37,116.53,374.33,106.47,376.2Z"/></svg>