<svg fill="#f2f2f2" id="Capa_1" data-name="Capa 1" xmlns="http://www.w3.org/2000/svg" viewBox="0 0 512 512">
    <title>ico-02</title>
    <path d="M420,0H92A10,10,0,0,0,82,10V502a10,10,0,0,0,10,10H420a10,10,0,0,0,10-10V10A10,10,0,0,0,420,0ZM410,492H102V169.28H410Zm0-342.72H102V20H410Z"/>
    <path d="M353.33,84.64l20.78-28.79a10,10,0,0,0-16.22-11.7L341,67.55l-16.89-23.4a10,10,0,1,0-16.22,11.7l20.78,28.79-20.78,28.79a10,10,0,0,0,16.22,11.71L341,101.73l16.89,23.4a10,10,0,0,0,16.22-11.7Z"/>
    <path d="M287.18,115.31,257.18,46a10,10,0,0,0-18.36,0l-30,69.28a10,10,0,0,0,18.36,8l3.73-8.62h34.18l3.73,8.62a10,10,0,0,0,18.36-8ZM239.57,94.64,248,75.17l8.43,19.47Z"/>
    <path d="M206,40H146a10,10,0,0,0,0,20h20v59.28a10,10,0,0,0,20,0V60h20a10,10,0,0,0,0-20Z"/>
    <path d="M380,189.28H152a10,10,0,0,0,0,20H380a10,10,0,0,0,0-20Z"/>
    <path d="M132,229.28a10,10,0,1,0,10,10A10,10,0,0,0,132,229.28Z"/>
    <path d="M212,229.28a10,10,0,1,0,10,10A10,10,0,0,0,212,229.28Z"/>
    <path d="M372,229.28a10,10,0,1,0,10,10A10,10,0,0,0,372,229.28Z"/>
    <path d="M172,229.28a10,10,0,1,0,10,10A10,10,0,0,0,172,229.28Z"/>
    <path d="M292,229.28a10,10,0,1,0,10,10A10,10,0,0,0,292,229.28Z"/>
    <path d="M252,229.28a10,10,0,1,0,10,10A10,10,0,0,0,252,229.28Z"/>
    <path d="M332,229.28a10,10,0,1,0,10,10A10,10,0,0,0,332,229.28Z"/>
    <path d="M380,269.28H132a10,10,0,0,0,0,20H380a10,10,0,0,0,0-20Z"/>
    <path d="M236,309.28a10,10,0,1,0,10,10A10,10,0,0,0,236,309.28Z"/>
    <path d="M196,309.28H132a10,10,0,0,0,0,20h64a10,10,0,0,0,0-20Z"/>
    <path d="M236,349.28a10,10,0,1,0,10,10A10,10,0,0,0,236,349.28Z"/>
    <path d="M196,349.28H132a10,10,0,0,0,0,20h64a10,10,0,0,0,0-20Z"/>
    <path d="M236,422H132a10,10,0,0,0,0,20H236a10,10,0,0,0,0-20Z"/>
    <path d="M380,309.28H316a10,10,0,0,0,0,20h64a10,10,0,0,0,0-20Z"/>
    <path d="M380,349.28H316a10,10,0,0,0,0,20h64a10,10,0,0,0,0-20Z"/>
    <path d="M350,392a40,40,0,1,0,40,40A40,40,0,0,0,350,392Zm0,60a20,20,0,1,1,20-20A20,20,0,0,1,350,452Z"/>
</svg>