<svg id="Capa_1" data-name="Capa 1" xmlns="http://www.w3.org/2000/svg" viewBox="0 0 536.5 83.03"><defs><style>.cls-1{isolation:isolate;font-size:85px;font-family:ArialMT, Arial;letter-spacing:-0.05em;}.cls-1,.cls-2{fill:#fff;}.cls-3{fill:#3855c9;}.cls-4{fill:#dd6b32;}</style></defs><title>logo</title><text class="cls-1" transform="translate(107.97 71.45)">FINANCES</text><path class="cls-2" d="M8.31,60.65,14,52.73A28.46,28.46,0,0,1,57.36,21l6.46-5.91a37,37,0,0,0-55.69,46Z"/><path class="cls-3" d="M67.68,18.52l-7.09,5.07A28.45,28.45,0,1,1,17.25,59.75L11,65.94A38.09,38.09,0,0,0,41.23,81.48a37,37,0,0,0,26.45-63Z"/><path class="cls-3" d="M83.84,28.06,90.91,1.62,64.57,8.72,70,14.23,36.31,46.37s-2.1.78-1.64-.5a18,18,0,0,0,0-7.46c-.54-2.31-2,0-2,0l-28,32.91L26.74,52.7s2.86-2,3.06,8.28,6,3.6,6,3.6L78.41,22.05Z"/><rect class="cls-4" x="498.5" width="28.33" height="7"/><rect class="cls-4" x="521.83" width="7.17" height="28.33"/><rect class="cls-4" x="521.83" y="54.75" width="7.17" height="28.33"/><rect class="cls-4" x="498.5" y="76.07" width="28.33" height="7.01"/></svg>