<svg id="Capa_1" data-name="Capa 1" xmlns="http://www.w3.org/2000/svg" viewBox="0 0 512 512"><defs><style>.cls-1{fill:#fff;}</style></defs><title>loupe-icon</title><path class="cls-1" d="M507.52,485.89,383.09,361.47a217.44,217.44,0,0,0,53.59-143.16C436.68,97.86,338.7,0,218.37,0S.06,98,.06,218.31,98,436.62,218.37,436.62A217.44,217.44,0,0,0,361.52,383L486,507.46A15.42,15.42,0,0,0,496.73,512a15,15,0,0,0,10.79-4.54A15.36,15.36,0,0,0,507.52,485.89ZM30.6,218.31c0-103.54,84.23-187.66,187.65-187.66s187.66,84.24,187.66,187.66S321.79,406.08,218.25,406.08,30.6,321.84,30.6,218.31Z"/></svg>