<?xml version="1.0" standalone="no"?>
<!DOCTYPE svg PUBLIC "-//W3C//DTD SVG 20010904//EN"
 "http://www.w3.org/TR/2001/REC-SVG-20010904/DTD/svg10.dtd">
<svg version="1.0" xmlns="http://www.w3.org/2000/svg"
 width="800.000000pt" height="800.000000pt" viewBox="0 0 800.000000 800.000000"
 preserveAspectRatio="xMidYMid meet">
<metadata>
Created by potrace 1.11, written by Peter Selinger 2001-2013
</metadata>
<g transform="translate(0.000000,800.000000) scale(0.100000,-0.100000)"
fill="#000000" stroke="none">
<path d="M7375 7144 c-27 -8 -59 -17 -69 -19 -11 -3 -146 -39 -300 -81 -155
-42 -288 -78 -296 -80 -8 -2 -58 -15 -110 -29 -52 -15 -102 -28 -110 -30 -8
-2 -15 -4 -15 -5 0 -1 -7 -3 -15 -5 -8 -1 -58 -14 -110 -28 -53 -15 -105 -28
-115 -30 -11 -2 -27 -7 -35 -10 -8 -4 -42 -13 -75 -21 -86 -21 -178 -46 -195
-53 -8 -3 -20 -7 -25 -8 -6 -2 -58 -15 -115 -30 -58 -15 -112 -28 -120 -30 -8
-2 -26 -8 -40 -13 -14 -5 -29 -10 -35 -11 -5 -1 -28 -6 -50 -12 -22 -6 -47
-13 -55 -15 -8 -2 -45 -11 -82 -21 -38 -9 -68 -20 -68 -24 0 -4 95 -102 210
-218 116 -116 210 -215 210 -219 0 -6 -138 -141 -339 -331 -25 -24 -91 -87
-147 -140 -56 -53 -179 -170 -275 -261 -95 -91 -216 -206 -269 -257 -52 -50
-113 -108 -135 -129 -36 -33 -291 -276 -430 -409 -29 -27 -119 -113 -200 -190
-81 -77 -173 -165 -204 -195 -69 -66 -327 -310 -465 -441 -54 -52 -127 -122
-162 -156 -64 -62 -114 -84 -170 -75 -21 3 -38 34 -26 47 3 3 7 13 8 23 15
109 18 160 18 297 0 88 -3 174 -6 190 -4 17 -10 50 -13 75 -7 55 -34 94 -66
97 -32 4 -37 -1 -163 -152 -109 -130 -119 -142 -153 -181 -10 -11 -43 -49 -73
-85 -30 -35 -57 -66 -60 -69 -3 -3 -28 -32 -55 -65 -73 -87 -98 -117 -115
-135 -8 -8 -35 -40 -60 -70 -59 -71 -81 -97 -105 -124 -11 -12 -40 -46 -65
-76 -25 -29 -50 -58 -55 -64 -6 -6 -35 -40 -64 -76 -30 -36 -57 -67 -60 -70
-3 -3 -28 -32 -56 -65 -58 -70 -77 -92 -136 -161 -24 -28 -64 -75 -89 -104
-43 -51 -102 -120 -159 -185 -14 -17 -48 -57 -76 -90 -27 -33 -54 -65 -60 -71
-5 -6 -30 -35 -55 -64 -25 -30 -53 -62 -62 -72 -10 -10 -18 -22 -18 -27 0 -5
-4 -11 -9 -13 -8 -3 -24 -21 -136 -153 -42 -50 -132 -155 -219 -255 -12 -14
-55 -65 -96 -115 -41 -49 -83 -98 -94 -107 -21 -20 -10 -24 15 -5 15 11 118
100 143 122 6 6 38 32 71 60 33 27 65 54 72 60 6 5 30 26 54 45 23 19 56 47
73 62 l31 27 20 -27 c121 -157 342 -392 455 -484 47 -38 112 -90 152 -121 119
-95 494 -317 534 -317 7 0 14 -4 16 -8 7 -17 380 -156 473 -177 11 -2 30 -6
43 -9 12 -3 26 -7 31 -11 5 -3 22 -7 38 -9 15 -3 39 -7 53 -10 32 -8 139 -28
165 -31 11 -2 40 -6 65 -9 25 -3 55 -8 67 -10 33 -7 257 -18 348 -18 127 1
247 10 378 28 23 3 53 7 67 9 14 1 25 3 25 4 0 1 14 4 30 6 17 2 41 7 55 11
14 3 36 8 50 10 14 3 52 12 85 21 33 8 67 17 75 18 8 2 15 4 15 5 0 1 7 3 15
5 27 5 265 88 275 95 6 4 21 11 35 15 14 4 51 20 83 36 31 15 57 24 57 21 0
-4 4 -2 8 3 4 6 36 25 72 43 86 43 165 88 218 123 24 16 47 29 53 29 5 0 9 5
9 10 0 6 5 10 10 10 6 0 16 5 23 10 7 6 56 43 111 84 200 150 382 328 536 521
61 76 61 76 144 201 33 49 67 100 76 114 34 50 139 258 185 366 45 105 129
345 139 395 2 13 11 52 20 85 9 34 18 77 20 95 3 19 6 35 7 37 6 8 22 115 34
232 12 126 14 160 15 300 1 133 -5 266 -16 338 -3 20 -7 53 -9 72 -2 19 -7 50
-10 68 -3 17 -7 46 -10 63 -2 17 -7 38 -9 48 -3 9 -8 32 -11 51 -3 19 -15 69
-26 110 -11 41 -21 82 -23 90 -2 8 -14 44 -26 80 -12 36 -23 70 -25 75 -1 6
-8 24 -14 40 -7 17 -19 47 -27 68 -18 50 -37 91 -101 224 l-55 113 181 180
c100 99 185 180 189 180 4 0 30 -26 57 -57 28 -31 59 -66 70 -78 18 -18 176
-194 200 -221 94 -110 110 -119 120 -67 2 10 4 18 5 18 1 0 3 7 5 15 4 24 74
282 85 315 5 17 11 41 14 55 7 38 96 369 112 418 8 23 14 53 14 65 0 13 5 28
12 35 7 7 9 12 6 12 -4 0 0 23 8 52 9 28 18 61 21 72 8 38 11 51 13 51 1 0 3
7 5 15 1 8 15 60 30 115 14 55 28 107 30 115 2 8 10 42 19 75 10 33 28 103 42
155 14 52 26 100 28 105 2 6 6 24 10 40 5 17 24 89 43 160 35 132 46 176 41
174 -2 0 -25 -7 -53 -15z m-1800 -2562 c10 -26 21 -56 25 -67 18 -45 31 -81
35 -100 3 -11 16 -62 30 -113 26 -96 48 -212 61 -322 15 -125 9 -458 -10 -555
-4 -23 -18 -119 -18 -122 1 -2 -4 -17 -9 -35 -5 -18 -11 -45 -14 -59 -9 -48
-55 -199 -79 -259 -13 -32 -21 -61 -18 -64 3 -3 1 -6 -5 -6 -5 0 -10 -6 -10
-12 0 -53 -244 -470 -317 -544 -6 -6 -27 -30 -46 -54 -56 -71 -250 -260 -315
-308 -5 -4 -37 -28 -70 -53 -63 -48 -200 -135 -250 -161 -16 -8 -48 -25 -70
-36 -128 -68 -391 -166 -499 -186 -23 -4 -96 -19 -108 -22 -5 -1 -9 -2 -10 -3
-2 -1 -23 -4 -47 -6 -25 -3 -52 -7 -60 -10 -60 -23 -485 -24 -606 -1 -11 2
-42 7 -70 11 -27 3 -88 16 -135 27 -47 11 -93 21 -103 23 -20 4 -81 24 -112
35 -157 60 -208 81 -310 132 -66 33 -122 63 -125 67 -3 3 -21 15 -40 26 -47
26 -201 133 -221 154 -9 9 -31 27 -49 41 -78 57 -282 273 -353 371 -9 13 -29
40 -43 59 l-25 35 28 25 c58 50 119 103 162 139 96 79 257 215 276 232 89 81
274 227 290 229 77 9 129 -58 169 -215 13 -53 20 -90 31 -175 2 -14 7 -79 10
-145 16 -326 17 -332 45 -425 35 -117 90 -171 168 -166 44 3 132 35 132 47 0
5 4 9 10 9 5 0 22 10 36 23 22 18 1726 1713 2417 2404 106 105 195 189 199
187 3 -2 14 -26 23 -52z"/>
<path d="M3338 6704 c-2 -1 -48 -5 -103 -8 -55 -4 -111 -9 -125 -10 -99 -13
-139 -20 -197 -32 -16 -3 -41 -7 -58 -10 -16 -3 -64 -14 -105 -25 -41 -11 -84
-22 -95 -24 -30 -7 -207 -65 -230 -75 -11 -5 -67 -28 -125 -51 -58 -24 -107
-45 -110 -48 -3 -4 -27 -16 -55 -29 -27 -13 -93 -48 -145 -78 -120 -69 -131
-76 -147 -91 -7 -6 -22 -15 -33 -18 -11 -3 -20 -11 -20 -16 0 -5 -7 -9 -15 -9
-8 0 -15 -4 -15 -10 0 -5 -4 -10 -10 -10 -5 0 -18 -7 -27 -15 -10 -8 -54 -44
-99 -79 -110 -86 -133 -106 -243 -216 -102 -101 -170 -176 -211 -230 -14 -18
-30 -39 -37 -45 -61 -63 -233 -334 -314 -495 -78 -158 -171 -390 -194 -487 -3
-10 -16 -58 -29 -107 -13 -48 -27 -104 -30 -125 -2 -20 -7 -43 -10 -51 -3 -8
-8 -32 -11 -52 -10 -73 -16 -113 -21 -138 -18 -103 -25 -465 -11 -635 3 -44 7
-80 8 -80 1 0 2 -13 4 -30 10 -121 69 -378 126 -550 18 -55 33 -102 34 -105 1
-3 6 -16 12 -30 6 -14 30 -70 54 -125 46 -110 79 -169 79 -144 0 13 59 105
106 164 8 11 73 101 145 200 71 99 132 185 137 190 4 6 22 31 40 56 28 42 30
50 21 80 -6 19 -12 45 -15 59 -3 14 -8 34 -11 45 -8 24 -7 19 -17 75 -17 91
-27 154 -33 195 -9 61 -11 425 -3 425 5 0 5 13 0 29 -4 16 -5 32 -2 36 3 3 7
18 9 33 3 26 15 112 18 122 0 3 5 28 10 55 9 53 11 64 15 68 1 1 3 11 5 21 2
11 6 30 10 43 3 13 5 24 5 25 0 2 11 37 25 78 15 41 28 82 30 90 9 41 116 271
173 370 24 43 116 183 134 205 5 6 22 28 39 50 107 141 285 315 431 422 82 61
157 113 163 113 2 0 33 17 67 38 75 45 227 120 278 137 3 1 17 7 33 13 80 34
275 91 362 106 17 3 41 8 55 11 30 6 76 13 155 23 69 8 465 7 510 -1 17 -3 48
-8 70 -11 78 -10 151 -24 215 -41 36 -10 70 -18 75 -19 6 -1 15 -4 20 -8 6 -3
26 -9 45 -13 19 -4 41 -12 49 -19 8 -6 17 -10 20 -10 13 3 138 -44 168 -64 12
-7 24 -13 28 -13 10 2 142 -67 236 -124 52 -31 97 -57 100 -58 6 -2 100 79
179 153 15 14 64 59 110 100 138 124 193 174 213 194 19 18 19 19 -9 42 -26
21 -174 122 -249 170 -62 40 -280 151 -406 207 -47 22 -355 123 -394 131 -16
3 -50 10 -75 16 -25 7 -54 13 -65 16 -11 2 -31 6 -45 9 -43 8 -93 16 -135 20
-22 3 -50 7 -62 9 -60 12 -465 30 -475 20z"/>
</g>
</svg>
